<svg width="202" height="52" viewBox="0 0 202 52" fill="none" xmlns="http://www.w3.org/2000/svg">
<path d="M66.815 43L57.085 18.71H60.655L68.67 39.255H67.375L75.46 18.71H78.995L69.195 43H66.815ZM82.4417 43V26.375H85.5917V43H82.4417ZM84.0167 23.05C83.4333 23.05 82.955 22.8633 82.5817 22.49C82.2083 22.0933 82.0217 21.6033 82.0217 21.02C82.0217 20.46 82.2083 19.9933 82.5817 19.62C82.955 19.2233 83.4333 19.025 84.0167 19.025C84.6 19.025 85.0783 19.2233 85.4517 19.62C85.825 19.9933 86.0117 20.46 86.0117 21.02C86.0117 21.6033 85.825 22.0933 85.4517 22.49C85.0783 22.8633 84.6 23.05 84.0167 23.05ZM95.5188 43.35C94.5855 43.35 93.6988 43.2333 92.8588 43C92.0422 42.7433 91.2838 42.3933 90.5838 41.95C89.8838 41.4833 89.2772 40.935 88.7638 40.305L90.7938 38.275C91.4005 39.0217 92.1005 39.5817 92.8938 39.955C93.6872 40.305 94.5738 40.48 95.5538 40.48C96.5338 40.48 97.2922 40.3167 97.8288 39.99C98.3655 39.64 98.6338 39.1617 98.6338 38.555C98.6338 37.9483 98.4122 37.4817 97.9688 37.155C97.5488 36.805 97.0005 36.525 96.3238 36.315C95.6472 36.0817 94.9238 35.86 94.1538 35.65C93.4072 35.4167 92.6955 35.125 92.0188 34.775C91.3422 34.425 90.7822 33.9467 90.3388 33.34C89.9188 32.7333 89.7088 31.9283 89.7088 30.925C89.7088 29.9217 89.9538 29.0583 90.4438 28.335C90.9338 27.5883 91.6105 27.0167 92.4738 26.62C93.3605 26.2233 94.4222 26.025 95.6588 26.025C96.9655 26.025 98.1205 26.2583 99.1238 26.725C100.15 27.1683 100.99 27.845 101.644 28.755L99.6138 30.785C99.1472 30.1783 98.5638 29.7117 97.8638 29.385C97.1872 29.0583 96.4172 28.895 95.5538 28.895C94.6438 28.895 93.9438 29.0583 93.4538 29.385C92.9872 29.6883 92.7538 30.12 92.7538 30.68C92.7538 31.24 92.9638 31.6717 93.3838 31.975C93.8038 32.2783 94.3522 32.535 95.0288 32.745C95.7288 32.955 96.4522 33.1767 97.1988 33.41C97.9455 33.62 98.6572 33.9117 99.3338 34.285C100.01 34.6583 100.559 35.16 100.979 35.79C101.422 36.42 101.644 37.2483 101.644 38.275C101.644 39.8383 101.084 41.075 99.9638 41.985C98.8672 42.895 97.3855 43.35 95.5188 43.35ZM110.455 43.35C109.522 43.35 108.635 43.2333 107.795 43C106.979 42.7433 106.22 42.3933 105.52 41.95C104.82 41.4833 104.214 40.935 103.7 40.305L105.73 38.275C106.337 39.0217 107.037 39.5817 107.83 39.955C108.624 40.305 109.51 40.48 110.49 40.48C111.47 40.48 112.229 40.3167 112.765 39.99C113.302 39.64 113.57 39.1617 113.57 38.555C113.57 37.9483 113.349 37.4817 112.905 37.155C112.485 36.805 111.937 36.525 111.26 36.315C110.584 36.0817 109.86 35.86 109.09 35.65C108.344 35.4167 107.632 35.125 106.955 34.775C106.279 34.425 105.719 33.9467 105.275 33.34C104.855 32.7333 104.645 31.9283 104.645 30.925C104.645 29.9217 104.89 29.0583 105.38 28.335C105.87 27.5883 106.547 27.0167 107.41 26.62C108.297 26.2233 109.359 26.025 110.595 26.025C111.902 26.025 113.057 26.2583 114.06 26.725C115.087 27.1683 115.927 27.845 116.58 28.755L114.55 30.785C114.084 30.1783 113.5 29.7117 112.8 29.385C112.124 29.0583 111.354 28.895 110.49 28.895C109.58 28.895 108.88 29.0583 108.39 29.385C107.924 29.6883 107.69 30.12 107.69 30.68C107.69 31.24 107.9 31.6717 108.32 31.975C108.74 32.2783 109.289 32.535 109.965 32.745C110.665 32.955 111.389 33.1767 112.135 33.41C112.882 33.62 113.594 33.9117 114.27 34.285C114.947 34.6583 115.495 35.16 115.915 35.79C116.359 36.42 116.58 37.2483 116.58 38.275C116.58 39.8383 116.02 41.075 114.9 41.985C113.804 42.895 112.322 43.35 110.455 43.35ZM127.422 43.35C125.509 43.35 123.875 43 122.522 42.3C121.169 41.6 119.967 40.585 118.917 39.255L121.157 37.015C121.927 38.0883 122.814 38.905 123.817 39.465C124.82 40.0017 126.057 40.27 127.527 40.27C128.974 40.27 130.129 39.955 130.992 39.325C131.879 38.695 132.322 37.8317 132.322 36.735C132.322 35.825 132.112 35.09 131.692 34.53C131.272 33.97 130.7 33.515 129.977 33.165C129.277 32.7917 128.507 32.465 127.667 32.185C126.827 31.8817 125.987 31.5667 125.147 31.24C124.307 30.89 123.537 30.47 122.837 29.98C122.137 29.4667 121.565 28.8017 121.122 27.985C120.702 27.1683 120.492 26.1417 120.492 24.905C120.492 23.5283 120.819 22.3617 121.472 21.405C122.149 20.425 123.059 19.6783 124.202 19.165C125.369 18.6283 126.675 18.36 128.122 18.36C129.709 18.36 131.132 18.675 132.392 19.305C133.652 19.9117 134.679 20.7167 135.472 21.72L133.232 23.96C132.509 23.12 131.727 22.49 130.887 22.07C130.07 21.65 129.125 21.44 128.052 21.44C126.745 21.44 125.707 21.7317 124.937 22.315C124.167 22.875 123.782 23.6683 123.782 24.695C123.782 25.5117 123.992 26.1767 124.412 26.69C124.855 27.18 125.427 27.6 126.127 27.95C126.827 28.3 127.597 28.6267 128.437 28.93C129.3 29.21 130.152 29.525 130.992 29.875C131.832 30.225 132.602 30.6683 133.302 31.205C134.002 31.7417 134.562 32.4417 134.982 33.305C135.425 34.145 135.647 35.2067 135.647 36.49C135.647 38.6367 134.9 40.3167 133.407 41.53C131.937 42.7433 129.942 43.35 127.422 43.35ZM142.076 43V19.41H145.226V43H142.076ZM137.981 29.245V26.375H149.321V29.245H137.981ZM159.489 43.35C157.856 43.35 156.386 42.965 155.079 42.195C153.772 41.425 152.734 40.3867 151.964 39.08C151.194 37.75 150.809 36.2683 150.809 34.635C150.809 33.025 151.194 31.5783 151.964 30.295C152.734 28.9883 153.772 27.95 155.079 27.18C156.386 26.41 157.856 26.025 159.489 26.025C161.099 26.025 162.557 26.41 163.864 27.18C165.194 27.9267 166.244 28.9533 167.014 30.26C167.784 31.5667 168.169 33.025 168.169 34.635C168.169 36.2683 167.784 37.75 167.014 39.08C166.244 40.3867 165.194 41.425 163.864 42.195C162.557 42.965 161.099 43.35 159.489 43.35ZM159.489 40.305C160.539 40.305 161.472 40.06 162.289 39.57C163.106 39.08 163.747 38.415 164.214 37.575C164.681 36.7117 164.914 35.7317 164.914 34.635C164.914 33.5617 164.669 32.605 164.179 31.765C163.712 30.925 163.071 30.2717 162.254 29.805C161.461 29.315 160.539 29.07 159.489 29.07C158.439 29.07 157.506 29.315 156.689 29.805C155.872 30.2717 155.231 30.925 154.764 31.765C154.297 32.605 154.064 33.5617 154.064 34.635C154.064 35.7317 154.297 36.7117 154.764 37.575C155.231 38.415 155.872 39.08 156.689 39.57C157.506 40.06 158.439 40.305 159.489 40.305ZM171.718 43V26.375H174.868V43H171.718ZM174.868 33.515L173.678 32.99C173.678 30.8667 174.168 29.175 175.148 27.915C176.128 26.655 177.54 26.025 179.383 26.025C180.223 26.025 180.982 26.1767 181.658 26.48C182.335 26.76 182.965 27.2383 183.548 27.915L181.483 30.05C181.133 29.6767 180.748 29.4083 180.328 29.245C179.908 29.0817 179.418 29 178.858 29C177.692 29 176.735 29.3733 175.988 30.12C175.242 30.8667 174.868 31.9983 174.868 33.515ZM192.919 43.35C191.263 43.35 189.769 42.9767 188.439 42.23C187.109 41.46 186.059 40.4217 185.289 39.115C184.519 37.8083 184.134 36.3267 184.134 34.67C184.134 33.0367 184.508 31.5667 185.254 30.26C186.024 28.9533 187.051 27.9267 188.334 27.18C189.641 26.41 191.099 26.025 192.709 26.025C194.249 26.025 195.603 26.375 196.769 27.075C197.959 27.775 198.881 28.7433 199.534 29.98C200.211 31.2167 200.549 32.6167 200.549 34.18C200.549 34.4133 200.538 34.67 200.514 34.95C200.491 35.2067 200.444 35.51 200.374 35.86H186.339V33.235H198.694L197.539 34.25C197.539 33.13 197.341 32.185 196.944 31.415C196.548 30.6217 195.988 30.015 195.264 29.595C194.541 29.1517 193.666 28.93 192.639 28.93C191.566 28.93 190.621 29.1633 189.804 29.63C188.988 30.0967 188.358 30.75 187.914 31.59C187.471 32.43 187.249 33.4217 187.249 34.565C187.249 35.7317 187.483 36.7583 187.949 37.645C188.416 38.5083 189.081 39.185 189.944 39.675C190.808 40.1417 191.799 40.375 192.919 40.375C193.853 40.375 194.704 40.2117 195.474 39.885C196.268 39.5583 196.944 39.0683 197.504 38.415L199.534 40.48C198.741 41.4133 197.761 42.125 196.594 42.615C195.451 43.105 194.226 43.35 192.919 43.35Z" fill="black"/>
<g clip-path="url(#clip0_350_11)">
<path d="M33.2334 40.2971C33.2334 42.2737 31.6475 43.8596 29.6709 43.8596C27.6943 43.8596 26.0928 42.2737 26.0928 40.2971C26.0928 38.3206 27.7021 36.719 29.6709 36.719C31.6553 36.719 33.2334 38.3206 33.2334 40.2971ZM13.3975 36.719C11.4209 36.719 9.83496 38.3284 9.83496 40.2971C9.83496 42.2659 11.4209 43.8596 13.3975 43.8596C15.374 43.8596 16.9756 42.2737 16.9756 40.2971C16.9756 38.3206 15.374 36.719 13.3975 36.719ZM36.1865 15.6252C12.5771 15.6252 6.56152 14.6252 0.163086 7.87524C2.85059 11.9143 4.32715 19.5081 29.3115 19.1409C55.3506 18.7502 39.4678 25.8674 34.8428 33.8987C49.4287 20.8752 59.7959 15.6252 36.1865 15.6252Z" fill="black"/>
</g>
<defs>
<clipPath id="clip0_350_11">
<rect width="50" height="50" fill="white" transform="translate(0.163086 0.867432)"/>
</clipPath>
</defs>
</svg>
